# xmcd
#
# Track frame offsets:
#	166
#	14438
#	28355
#	42029
#	54847
#	70506
#	88456
#	102366
#	119172
#	133073
#	150733
#	164641
#
# Disc length: 2405 seconds
#
# Revision: 2
# Processed by: cddbd v1.5.1PL2 Copyright (c) Steve Scherf et al.
# Submitted via: audiograbber 1.83.01
#
DISCID=a809630c
DTITLE=Jeff Bates - Leave the Light On
DYEAR=2006
DGENRE=Country
TTITLE0=Long Slow Kisses
TTITLE1=Rub It In
TTITLE2=No Shame
TTITLE3=Hands On Man
TTITLE4=Leave The Light On
TTITLE5=That'll Get You 10
TTITLE6=The Woman He Walked On
TTITLE7=One Second Chance
TTITLE8=Good People
TTITLE9=I Can't Write That
TTITLE10=What I Know
TTITLE11=Mama Was a Lot Like Jesus
EXTD=
EXTT0=
EXTT1=
EXTT2=
EXTT3=
EXTT4=
EXTT5=
EXTT6=
EXTT7=
EXTT8=
EXTT9=
EXTT10=
EXTT11=
PLAYORDER=
